<svg version="1.1" id="Layer_1" xmlns="http://www.w3.org/2000/svg" xmlns:xlink="http://www.w3.org/1999/xlink" x="0px" y="0px"
	 width="100%" viewBox="0 0 318 238" enable-background="new 0 0 318 238" xml:space="preserve">
<path fill="#F87D10" opacity="1.000000" stroke="none" 
	d="
M213.000000,239.000000 
	C174.312439,239.000000 135.624878,239.000000 96.769379,238.704315 
	C98.737877,238.218369 100.873260,237.876633 103.010933,237.861679 
	C120.662262,237.738113 138.314026,237.675125 156.434174,237.656281 
	C158.729965,237.765686 160.557190,237.849808 162.384567,237.853668 
	C178.613052,237.887894 178.933182,237.558823 179.081573,220.601471 
	C179.110916,213.800613 179.053787,207.399704 179.207108,200.666351 
	C179.278381,195.735153 179.020081,191.136459 179.018082,186.537674 
	C178.991180,124.691803 179.000031,62.845898 179.000000,1.000000 
	C190.354233,1.000000 201.708450,1.000000 213.531342,1.468657 
	C214.000000,8.748729 213.999969,15.560143 213.999985,22.371557 
	C214.000107,59.585121 213.983948,96.798714 214.034851,134.012207 
	C214.038467,136.657089 213.044739,139.941498 216.930145,141.349548 
	C216.627274,142.320969 216.492401,143.001297 216.152908,143.556503 
	C207.923126,157.015076 205.638855,171.428711 209.976547,186.575989 
	C211.691086,192.563156 214.626389,198.200745 216.640869,204.027954 
	C215.364273,205.447449 213.714828,206.807617 213.659180,208.230118 
	C213.258270,218.479660 213.180344,228.741837 213.000000,239.000000 
z"/>
<path fill="#F79E0F" opacity="1.000000" stroke="none" 
	d="
M27.000000,239.000000 
	C21.977907,239.000000 16.955816,239.000000 11.618950,238.647583 
	C9.217540,237.031082 7.066937,235.859268 5.065623,234.472061 
	C3.608345,233.461975 2.348091,232.167618 1.000000,231.000000 
	C1.000000,156.979111 1.000000,82.958206 1.246033,8.804667 
	C2.807987,7.406454 4.223513,6.226621 5.409247,4.849003 
	C6.411105,3.685017 7.146610,2.291776 8.000000,1.000000 
	C12.356899,1.000000 16.713799,1.000000 21.535557,1.468657 
	C22.002148,10.475675 21.833797,19.020142 22.139984,27.547569 
	C22.206284,29.394051 23.977892,31.179296 24.815975,33.313499 
	C8.178234,73.938202 10.225506,113.085518 31.589825,151.020782 
	C26.953386,151.406586 28.071283,154.696945 28.036535,157.126526 
	C27.646217,184.417038 27.333544,211.708664 27.000000,239.000000 
z"/>
<path fill="#F96B11" opacity="1.000000" stroke="none" 
	d="
M319.000000,114.000000 
	C319.000000,152.687561 319.000000,191.375122 318.760925,230.194031 
	C315.574982,232.880661 312.621155,235.428177 309.708374,238.021790 
	C309.600647,238.117722 309.893707,238.663742 310.000000,239.000000 
	C300.312439,239.000000 290.624878,239.000000 280.461945,238.531372 
	C279.991180,196.007706 279.941833,153.952423 280.128906,111.898201 
	C280.140625,109.258339 282.000244,106.626701 283.285828,104.166397 
	C285.711182,105.566216 287.850891,106.790863 290.238800,108.253029 
	C295.000671,110.307426 299.514282,112.124306 304.492249,113.949051 
	C309.637695,113.971283 314.318848,113.985641 319.000000,114.000000 
z"/>
<path fill="#F87710" opacity="1.000000" stroke="none" 
	d="
M217.002808,141.000183 
	C213.044739,139.941498 214.038467,136.657089 214.034851,134.012207 
	C213.983948,96.798714 214.000107,59.585121 213.999985,22.371557 
	C213.999969,15.560143 214.000000,8.748729 214.000000,1.468657 
	C225.354233,1.000000 236.708450,1.000000 248.531342,1.468657 
	C249.000000,40.165176 248.967239,78.393112 249.044098,116.620811 
	C249.053070,121.078705 249.667908,125.535378 249.645874,129.843597 
	C243.474701,127.422874 237.433594,127.076393 232.053253,130.149948 
	C226.713043,133.200592 221.994171,137.338882 217.002808,141.000183 
z"/>
<path fill="#F97111" opacity="1.000000" stroke="none" 
	d="
M250.001862,129.992615 
	C249.667908,125.535378 249.053070,121.078705 249.044098,116.620811 
	C248.967239,78.393112 249.000000,40.165176 249.000000,1.468657 
	C254.354935,1.000000 259.709869,1.000000 265.508057,1.375925 
	C264.964386,4.833819 263.977509,7.915788 262.772156,11.283716 
	C261.040680,19.044008 259.527649,26.518341 257.924927,34.398651 
	C257.563782,36.273117 257.039490,37.745083 257.059601,39.209579 
	C257.286499,55.755188 260.161133,71.768311 268.886200,86.044891 
	C272.827301,92.493637 278.249786,98.037064 283.000183,103.991226 
	C282.000244,106.626701 280.140625,109.258339 280.128906,111.898201 
	C279.941833,153.952423 279.991180,196.007706 279.993286,238.531372 
	C269.645782,239.000000 259.291534,239.000000 248.462372,238.531494 
	C248.658096,230.375107 249.328751,222.687256 250.268341,214.788757 
	C255.537445,210.357895 261.829102,206.993011 265.296448,201.757599 
	C275.854309,185.816055 276.412109,168.370789 269.658051,150.713165 
	C266.013977,141.186218 259.583130,134.025391 250.001862,129.992615 
z"/>
<path fill="#F88310" opacity="1.000000" stroke="none" 
	d="
M178.531342,1.000000 
	C179.000031,62.845898 178.991180,124.691803 179.018082,186.537674 
	C179.020081,191.136459 179.278381,195.735153 179.000549,200.354553 
	C178.099884,198.452621 177.652145,196.520126 177.126617,194.609009 
	C174.002258,183.247116 169.288376,172.678833 160.185760,164.834229 
	C155.495087,160.791809 150.084320,157.584946 145.175568,153.711594 
	C147.005356,150.740799 148.833786,148.150192 150.284607,145.362991 
	C165.144119,116.816170 168.606796,86.729988 161.461960,55.534489 
	C159.684311,47.773022 155.913757,40.467995 153.018600,32.580544 
	C151.320099,28.806086 149.662216,25.404257 147.848877,21.696238 
	C142.462280,14.593365 137.231140,7.796682 132.000000,1.000000 
	C147.354233,1.000000 162.708450,1.000000 178.531342,1.000000 
z"/>
<path fill="#FAA22C" opacity="1.000000" stroke="none" 
	d="
M131.531342,1.000000 
	C137.231140,7.796682 142.462280,14.593365 147.490021,21.844372 
	C143.228241,22.571569 139.164719,23.126245 135.112701,23.052092 
	C128.838043,22.937260 122.304688,21.092894 116.358597,22.311745 
	C105.226433,24.593657 94.287743,23.284670 83.243874,23.046034 
	C74.340858,22.853657 72.389557,24.913715 71.603287,34.025375 
	C65.135178,35.037056 59.067726,36.017498 52.666512,36.844391 
	C47.763447,35.520023 48.659039,31.394236 48.698471,28.541908 
	C48.754341,24.500271 47.086033,24.082914 43.755772,23.899490 
	C39.468586,23.663361 35.223835,22.656660 31.048882,21.645157 
	C36.424637,14.538965 41.712318,7.769482 47.000000,1.000000 
	C75.020897,1.000000 103.041786,1.000000 131.531342,1.000000 
z"/>
<path fill="#FB8234" opacity="1.000000" stroke="none" 
	d="
M262.990601,10.997755 
	C263.977509,7.915788 264.964386,4.833819 265.975647,1.375925 
	C281.020905,1.000000 296.041779,1.000000 311.198608,1.231087 
	C313.889709,3.641449 316.444855,5.820725 319.000000,8.000000 
	C319.000000,43.020893 319.000000,78.041786 319.000000,113.531342 
	C314.318848,113.985641 309.637695,113.971283 304.485107,113.486786 
	C303.681702,98.385399 303.062531,83.753166 303.111847,69.123199 
	C303.149017,58.104294 301.143188,47.550613 297.214996,37.411224 
	C292.127258,24.278839 283.629456,14.748974 268.679199,12.813975 
	C266.737152,12.562621 264.884613,11.620116 262.990601,10.997755 
z"/>
<path fill="#F7980F" opacity="1.000000" stroke="none" 
	d="
M27.468658,239.000000 
	C27.333544,211.708664 27.646217,184.417038 28.036535,157.126526 
	C28.071283,154.696945 26.953386,151.406586 31.736992,151.316467 
	C33.526325,153.395462 34.767109,155.197052 36.182014,157.281662 
	C43.437634,166.717621 51.880287,174.314407 61.771812,180.251740 
	C60.862873,182.149811 59.589291,183.791306 59.591240,185.431290 
	C59.612473,203.287659 59.833435,221.143799 60.000000,239.000000 
	C49.312439,239.000000 38.624878,239.000000 27.468658,239.000000 
z"/>
<path fill="#F89310" opacity="1.000000" stroke="none" 
	d="
M60.468658,239.000000 
	C59.833435,221.143799 59.612473,203.287659 59.591240,185.431290 
	C59.589291,183.791306 60.862873,182.149811 62.145309,180.255249 
	C63.493382,180.008316 64.240303,180.015137 65.191040,180.301300 
	C74.121254,186.327911 83.982811,187.014252 93.973175,187.386139 
	C92.632637,194.851044 91.321075,201.926971 90.008041,209.470825 
	C90.004051,211.906525 89.741943,213.915283 90.044853,215.834869 
	C91.230042,223.345642 92.593742,230.828262 93.860092,238.500351 
	C93.829079,238.679367 94.000000,239.000000 94.000000,239.000000 
	C82.979103,239.000000 71.958214,239.000000 60.468658,239.000000 
z"/>
<path fill="#FA971F" opacity="1.000000" stroke="none" 
	d="
M93.891106,238.321335 
	C92.593742,230.828262 91.230042,223.345642 90.044853,215.834869 
	C89.741943,213.915283 90.004051,211.906525 90.382980,209.394150 
	C92.390518,208.786438 94.029343,208.589828 95.651413,208.683456 
	C102.436195,209.075073 109.215958,209.553802 116.078720,210.337372 
	C119.763206,213.091064 123.057114,216.557266 127.027863,217.728226 
	C138.962418,221.247635 147.648849,229.049576 155.965652,237.593765 
	C138.314026,237.675125 120.662262,237.738113 103.010933,237.861679 
	C100.873260,237.876633 98.737877,238.218369 96.300720,238.704315 
	C96.000000,239.000000 95.500000,239.000000 95.170471,238.760117 
	C94.524323,238.453934 94.207718,238.387634 93.891106,238.321335 
z"/>
<path fill="#F87710" opacity="1.000000" stroke="none" 
	d="
M249.999390,214.999390 
	C249.328751,222.687256 248.658096,230.375107 247.993713,238.531494 
	C236.645767,239.000000 225.291550,239.000000 213.468658,239.000000 
	C213.180344,228.741837 213.258270,218.479660 213.659180,208.230118 
	C213.714828,206.807617 215.364273,205.447449 216.921890,204.205627 
	C226.517868,213.569153 236.573898,219.416290 249.999390,214.999390 
z"/>
<path fill="#F7980F" opacity="1.000000" stroke="none" 
	d="
M46.531349,1.000000 
	C41.712318,7.769482 36.424637,14.538965 30.775753,21.843796 
	C28.597713,25.917013 26.780874,29.454882 24.964035,32.992748 
	C23.977892,31.179296 22.206284,29.394051 22.139984,27.547569 
	C21.833797,19.020142 22.002148,10.475675 22.000208,1.468657 
	C30.020899,1.000000 38.041798,1.000000 46.531349,1.000000 
z"/>
<path fill="#000000" opacity="1.000000" stroke="none" 
	d="
M1.000000,231.494736 
	C2.348091,232.167618 3.608345,233.461975 5.065623,234.472061 
	C7.066937,235.859268 9.217540,237.031082 11.152088,238.647583 
	C7.759899,239.000000 4.519798,239.000000 1.000000,239.000000 
	C1.000000,236.666824 1.000000,234.328156 1.000000,231.494736 
z"/>
<path fill="#000000" opacity="1.000000" stroke="none" 
	d="
M310.491058,239.000000 
	C309.893707,238.663742 309.600647,238.117722 309.708374,238.021790 
	C312.621155,235.428177 315.574982,232.880661 318.760925,230.662689 
	C319.000000,233.588745 319.000000,236.177505 319.000000,239.000000 
	C316.329681,239.000000 313.655914,239.000000 310.491058,239.000000 
z"/>
<path fill="#000000" opacity="1.000000" stroke="none" 
	d="
M319.000000,7.502096 
	C316.444855,5.820725 313.889709,3.641449 311.667297,1.231087 
	C314.247650,1.000000 316.495270,1.000000 319.000000,1.000000 
	C319.000000,2.998142 319.000000,5.001166 319.000000,7.502096 
z"/>
<path fill="#000000" opacity="1.000000" stroke="none" 
	d="
M7.502095,1.000000 
	C7.146610,2.291776 6.411105,3.685017 5.409247,4.849003 
	C4.223513,6.226621 2.807987,7.406454 1.246033,8.336008 
	C1.000000,5.752362 1.000000,3.504725 1.000000,1.000000 
	C2.998142,1.000000 5.001166,1.000000 7.502095,1.000000 
z"/>
<path fill="#F97111" opacity="1.000000" stroke="none" 
	d="
M93.860092,238.500351 
	C94.207718,238.387634 94.524323,238.453934 94.920471,238.760117 
	C95.000000,239.000000 94.500000,239.000000 94.250000,239.000000 
	C94.000000,239.000000 93.829079,238.679367 93.860092,238.500351 
z"/>
<path fill="#FA801A" opacity="1.000000" stroke="none" 
	d="
M250.268341,214.788757 
	C236.573898,219.416290 226.517868,213.569153 217.286865,204.175156 
	C214.626389,198.200745 211.691086,192.563156 209.976547,186.575989 
	C205.638855,171.428711 207.923126,157.015076 216.152908,143.556503 
	C216.492401,143.001297 216.627274,142.320969 216.930145,141.349548 
	C221.994171,137.338882 226.713043,133.200592 232.053253,130.149948 
	C237.433594,127.076393 243.474701,127.422874 249.645874,129.843597 
	C259.583130,134.025391 266.013977,141.186218 269.658051,150.713165 
	C276.412109,168.370789 275.854309,185.816055 265.296448,201.757599 
	C261.829102,206.993011 255.537445,210.357895 250.268341,214.788757 
z"/>
<path fill="#FA911A" opacity="1.000000" stroke="none" 
	d="
M156.434174,237.656281 
	C147.648849,229.049576 138.962418,221.247635 127.027863,217.728226 
	C123.057114,216.557266 119.763206,213.091064 116.079376,209.912628 
	C116.207909,207.210464 115.722847,204.693008 116.762192,203.442429 
	C119.390648,200.279678 118.405830,197.376740 117.295769,194.243698 
	C115.850914,190.165726 114.430092,186.079224 113.245071,181.761963 
	C115.229156,180.566010 116.993629,179.649216 118.700394,178.635269 
	C126.113937,174.231049 133.471375,169.752975 138.258118,161.844940 
	C139.342804,161.127029 140.169373,160.562958 140.993469,160.430176 
	C141.201736,167.412872 140.639938,174.105698 141.807388,180.481903 
	C143.487076,189.655777 147.033966,198.492905 148.637390,207.673996 
	C149.976685,215.342621 154.172684,218.546570 161.219559,219.289627 
	C167.139084,219.913818 173.069519,220.434769 178.995117,221.001434 
	C178.933182,237.558823 178.613052,237.887894 162.384567,237.853668 
	C160.557190,237.849808 158.729965,237.765686 156.434174,237.656281 
z"/>
<path fill="#F98B17" opacity="1.000000" stroke="none" 
	d="
M179.081573,220.601471 
	C173.069519,220.434769 167.139084,219.913818 161.219559,219.289627 
	C154.172684,218.546570 149.976685,215.342621 148.637390,207.673996 
	C147.033966,198.492905 143.487076,189.655777 141.807388,180.481903 
	C140.639938,174.105698 141.201736,167.412872 141.125305,160.141479 
	C141.509583,158.617264 141.759506,157.813065 142.263214,156.839157 
	C143.344315,155.779816 144.171616,154.890167 144.998932,154.000534 
	C150.084320,157.584946 155.495087,160.791809 160.185760,164.834229 
	C169.288376,172.678833 174.002258,183.247116 177.126617,194.609009 
	C177.652145,196.520126 178.099884,198.452621 178.790115,200.687012 
	C179.053787,207.399704 179.110916,213.800613 179.081573,220.601471 
z"/>
<path fill="#F9A519" opacity="1.000000" stroke="none" 
	d="
M24.815977,33.313499 
	C26.780874,29.454882 28.597713,25.917013 30.687679,22.180504 
	C35.223835,22.656660 39.468586,23.663361 43.755772,23.899490 
	C47.086033,24.082914 48.754341,24.500271 48.698471,28.541908 
	C48.659039,31.394236 47.763447,35.520023 52.638721,37.211430 
	C51.280098,41.655563 50.026482,45.822868 47.871803,49.455742 
	C42.029205,59.306587 40.029846,70.003502 40.011410,81.219055 
	C39.973198,104.463669 39.999752,127.708389 39.996582,150.953064 
	C39.996189,153.839157 40.206902,156.876984 36.007889,156.998657 
	C34.767109,155.197052 33.526325,153.395462 32.138374,151.298172 
	C10.225506,113.085518 8.178234,73.938202 24.815977,33.313499 
z"/>
<path fill="#FB7E27" opacity="1.000000" stroke="none" 
	d="
M262.772156,11.283714 
	C264.884613,11.620116 266.737152,12.562621 268.679199,12.813975 
	C283.629456,14.748974 292.127258,24.278839 297.214996,37.411224 
	C301.143188,47.550613 303.149017,58.104294 303.111847,69.123199 
	C303.062531,83.753166 303.681702,98.385399 304.020782,113.478920 
	C299.514282,112.124306 295.000671,110.307426 290.206970,107.831757 
	C289.617889,97.413666 289.722046,87.618233 288.872803,77.906181 
	C288.157074,69.720894 287.052887,61.430088 284.835052,53.547714 
	C281.346375,41.148571 270.938568,34.083820 258.014648,33.992676 
	C259.527649,26.518341 261.040680,19.044008 262.772156,11.283714 
z"/>
<path fill="#FB7C20" opacity="1.000000" stroke="none" 
	d="
M257.924927,34.398651 
	C270.938568,34.083820 281.346375,41.148571 284.835052,53.547714 
	C287.052887,61.430088 288.157074,69.720894 288.872803,77.906181 
	C289.722046,87.618233 289.617889,97.413666 289.958740,107.594238 
	C287.850891,106.790863 285.711182,105.566216 283.285828,104.166397 
	C278.249786,98.037064 272.827301,92.493637 268.886200,86.044891 
	C260.161133,71.768311 257.286499,55.755188 257.059601,39.209579 
	C257.039490,37.745083 257.563782,36.273117 257.924927,34.398651 
z"/>
<path fill="#FA911A" opacity="1.000000" stroke="none" 
	d="
M145.175568,153.711594 
	C144.171616,154.890167 143.344315,155.779816 142.134369,156.504181 
	C139.237793,155.268570 136.746246,153.369980 134.205185,153.301208 
	C128.999435,153.160294 127.890221,150.786453 127.921082,146.092361 
	C128.088547,120.616325 127.999435,95.138611 128.004639,69.661476 
	C128.004883,68.496674 127.958031,67.318024 128.110596,66.169395 
	C128.936691,59.949665 128.370239,55.427624 126.177162,49.719208 
	C128.017242,47.609985 130.021317,45.989307 131.279129,43.915905 
	C134.832764,38.058056 139.990463,35.936081 146.629089,35.829296 
	C148.787323,35.794582 150.916656,33.962929 153.059219,32.953167 
	C155.913757,40.467995 159.684311,47.773022 161.461960,55.534489 
	C168.606796,86.729988 165.144119,116.816170 150.284607,145.362991 
	C148.833786,148.150192 147.005356,150.740799 145.175568,153.711594 
z"/>
<path fill="#FA971F" opacity="1.000000" stroke="none" 
	d="
M153.018600,32.580544 
	C150.916656,33.962929 148.787323,35.794582 146.629089,35.829296 
	C139.990463,35.936081 134.832764,38.058056 131.279129,43.915905 
	C130.021317,45.989307 128.017242,47.609985 125.709366,49.718880 
	C116.715416,51.039215 107.766235,47.066448 99.585205,52.997025 
	C91.779793,51.663139 84.391609,50.331757 77.003235,48.564960 
	C77.430420,45.397099 78.102837,42.671272 78.176949,39.929272 
	C78.211563,38.648525 77.389198,37.002029 76.412926,36.125038 
	C75.246468,35.077202 73.499474,34.675636 72.003944,33.994133 
	C72.389557,24.913715 74.340858,22.853657 83.243874,23.046034 
	C94.287743,23.284670 105.226433,24.593657 116.358597,22.311745 
	C122.304688,21.092894 128.838043,22.937260 135.112701,23.052092 
	C139.164719,23.126245 143.228241,22.571569 147.645462,22.150562 
	C149.662216,25.404257 151.320099,28.806086 153.018600,32.580544 
z"/>
<path fill="#F9A119" opacity="1.000000" stroke="none" 
	d="
M71.603287,34.025375 
	C73.499474,34.675636 75.246468,35.077202 76.412926,36.125038 
	C77.389198,37.002029 78.211563,38.648525 78.176949,39.929272 
	C78.102837,42.671272 77.430420,45.397099 76.718987,48.742485 
	C70.842690,52.561504 68.041786,57.657562 67.204292,63.799618 
	C66.533012,68.722771 66.028214,73.720055 66.072800,78.678833 
	C66.169823,89.470184 66.870605,100.256393 66.952568,111.047523 
	C67.106766,131.348206 67.071953,151.651459 66.908920,171.951981 
	C66.887276,174.646942 65.657501,177.332199 64.987228,180.021973 
	C64.240303,180.015137 63.493382,180.008316 62.372963,179.997986 
	C51.880287,174.314407 43.437634,166.717621 36.182018,157.281662 
	C40.206902,156.876984 39.996189,153.839157 39.996582,150.953064 
	C39.999752,127.708389 39.973198,104.463669 40.011410,81.219055 
	C40.029846,70.003502 42.029205,59.306587 47.871803,49.455742 
	C50.026482,45.822868 51.280098,41.655563 52.972481,37.364983 
	C59.067726,36.017498 65.135178,35.037056 71.603287,34.025375 
z"/>
<path fill="#FA9C1A" opacity="1.000000" stroke="none" 
	d="
M65.191048,180.301285 
	C65.657501,177.332199 66.887276,174.646942 66.908920,171.951981 
	C67.071953,151.651459 67.106766,131.348206 66.952568,111.047523 
	C66.870605,100.256393 66.169823,89.470184 66.072800,78.678833 
	C66.028214,73.720055 66.533012,68.722771 67.204292,63.799618 
	C68.041786,57.657562 70.842690,52.561504 76.719177,49.177895 
	C84.391609,50.331757 91.779793,51.663139 99.472626,53.317799 
	C94.707932,57.715660 93.949112,63.366463 94.175133,69.305290 
	C94.332733,73.446541 94.952400,77.578606 94.962265,81.715736 
	C95.032921,111.351646 94.991814,140.987808 95.019974,170.623856 
	C95.021744,172.488464 95.307831,174.352829 95.502213,176.708969 
	C97.499382,175.506577 98.751770,174.752579 99.929413,174.353333 
	C98.571297,178.472244 97.287933,182.236420 95.753265,186.123230 
	C95.002014,186.496292 94.502075,186.746719 94.002144,186.997162 
	C83.982811,187.014252 74.121254,186.327911 65.191048,180.301285 
z"/>
<path fill="#FA971A" opacity="1.000000" stroke="none" 
	d="
M93.973175,187.386139 
	C94.502075,186.746719 95.002014,186.496292 96.169716,186.120392 
	C102.224625,184.662064 107.611771,183.329224 112.998917,181.996399 
	C114.430092,186.079224 115.850914,190.165726 117.295769,194.243698 
	C118.405830,197.376740 119.390648,200.279678 116.762192,203.442429 
	C115.722847,204.693008 116.207909,207.210464 115.998215,209.575836 
	C109.215958,209.553802 102.436195,209.075073 95.651413,208.683456 
	C94.029343,208.589828 92.390518,208.786438 90.384453,208.926239 
	C91.321075,201.926971 92.632637,194.851044 93.973175,187.386139 
z"/>
<path fill="#FA971A" opacity="1.000000" stroke="none" 
	d="
M100.004150,173.998596 
	C98.751770,174.752579 97.499382,175.506577 95.502213,176.708969 
	C95.307831,174.352829 95.021744,172.488464 95.019974,170.623856 
	C94.991814,140.987808 95.032921,111.351646 94.962265,81.715736 
	C94.952400,77.578606 94.332733,73.446541 94.175133,69.305290 
	C93.949112,63.366463 94.707932,57.715660 99.889862,53.320305 
	C107.766235,47.066448 116.715416,51.039215 125.532684,50.000740 
	C128.370239,55.427624 128.936691,59.949665 128.110596,66.169395 
	C127.958031,67.318024 128.004883,68.496674 128.004639,69.661476 
	C127.999435,95.138611 128.088547,120.616325 127.921082,146.092361 
	C127.890221,150.786453 128.999435,153.160294 134.205185,153.301208 
	C136.746246,153.369980 139.237793,155.268570 141.880585,156.673889 
	C141.759506,157.813065 141.509583,158.617264 141.127792,159.710175 
	C140.169373,160.562958 139.342804,161.127029 138.285034,161.467377 
	C138.798325,158.283752 139.203156,155.023407 134.926041,155.220383 
	C129.721695,155.460052 124.361015,155.939194 119.419945,157.459061 
	C110.750908,160.125626 105.943260,167.836334 100.004150,173.998596 
z"/>
<path fill="#FA971F" opacity="1.000000" stroke="none" 
	d="
M99.929405,174.353333 
	C105.943260,167.836334 110.750908,160.125626 119.419945,157.459061 
	C124.361015,155.939194 129.721695,155.460052 134.926041,155.220383 
	C139.203156,155.023407 138.798325,158.283752 138.026917,161.621216 
	C133.471375,169.752975 126.113937,174.231049 118.700394,178.635269 
	C116.993629,179.649216 115.229156,180.566010 113.245071,181.761963 
	C107.611771,183.329224 102.224625,184.662064 96.421021,185.997742 
	C97.287933,182.236420 98.571297,178.472244 99.929405,174.353333 
z"/>
</svg>