<svg id="Grupo_104" data-name="Grupo 104" xmlns="http://www.w3.org/2000/svg" xmlns:xlink="http://www.w3.org/1999/xlink" width="38.119" height="34.36" viewBox="0 0 38.119 34.36">
  <defs>
    <clipPath id="clip-path">
      <rect id="Rectángulo_136" data-name="Rectángulo 136" width="38.119" height="34.36" fill="#fff" stroke="#fff" stroke-width="1"/>
    </clipPath>
  </defs>
  <g id="Grupo_103" data-name="Grupo 103" clip-path="url(#clip-path)">
    <path id="Trazado_59" data-name="Trazado 59" d="M0,12.829v-2.01a2.077,2.077,0,0,0,.068-.282A11.8,11.8,0,0,1,3.189,3.454C7.058-.691,13.265-1.324,17.663,2.886c.489.468.931.986,1.387,1.473.5-.525.975-1.086,1.514-1.573a9.394,9.394,0,0,1,9-2.478c4.4,1.117,7,4.1,8.175,8.4.187.687.258,1.406.383,2.11v1.936a2.943,2.943,0,0,0-.063.321A15.554,15.554,0,0,1,36.9,17.709a25.468,25.468,0,0,1-6.11,8.572,51.847,51.847,0,0,1-11.126,7.911,1.176,1.176,0,0,1-1.268-.037c-1.929-1.192-3.9-2.317-5.778-3.588a35.555,35.555,0,0,1-8.438-7.8A19.82,19.82,0,0,1,.348,14.913C.2,14.226.114,13.524,0,12.829m4.048,5.485c0,.066-.008.094,0,.113q.063.135.134.265a24.431,24.431,0,0,0,4.442,5.75A48.241,48.241,0,0,0,18.734,31.8a.533.533,0,0,0,.636.009c1.826-1.17,3.7-2.268,5.479-3.507a31.585,31.585,0,0,0,7.495-7.122,16.1,16.1,0,0,0,3.5-9.088,9.532,9.532,0,0,0-3.3-7.848,7.6,7.6,0,0,0-8.661-1.107,9.061,9.061,0,0,0-3.622,3.5c-.687,1.178-1.761,1.13-2.4.02A9.847,9.847,0,0,0,16.209,4.6a7.362,7.362,0,0,0-7-2.176A8.374,8.374,0,0,0,3.354,7.081a11.066,11.066,0,0,0-.383,8.781.45.45,0,0,0,.35.209c.93.017,1.861,0,2.791.016a.429.429,0,0,0,.444-.3c.613-1.245,1.244-2.481,1.855-3.727a1.146,1.146,0,0,1,2.166.014c.459.948.939,1.886,1.41,2.828l2.283,4.564c.086-.162.15-.279.21-.4q1.746-3.491,3.487-6.985a1.151,1.151,0,0,1,2.185,0c.595,1.212,1.213,2.413,1.8,3.629a.556.556,0,0,0,.587.373q3.666-.021,7.333,0a1.107,1.107,0,0,1,1.165,1.1,1.12,1.12,0,0,1-1.149,1.123q-4.206.016-8.412,0a1.128,1.128,0,0,1-1.062-.688q-.569-1.149-1.144-2.3c-.058-.116-.127-.227-.215-.382-.088.163-.155.277-.214.4Q17.1,18.815,15.37,22.292a1.193,1.193,0,0,1-1.1.8,1.206,1.206,0,0,1-1.095-.813c-1.1-2.232-2.224-4.457-3.339-6.685-.1-.209-.212-.418-.338-.665-.077.141-.137.245-.191.352-.389.775-.782,1.549-1.164,2.327a1.169,1.169,0,0,1-1.128.705c-.509,0-1.017,0-1.526,0H4.048" transform="translate(0 0)" fill="#fff" stroke="#fff" stroke-width="1"/>
  </g>
</svg>
