<svg xmlns="http://www.w3.org/2000/svg" width="44" height="36" viewBox="0 0 44 36">
  <path id="fire_truck_FILL0_wght400_GRAD0_opsz48" d="M14,42a5.975,5.975,0,0,1-6-6H5a2.893,2.893,0,0,1-2.125-.875A2.893,2.893,0,0,1,2,33V22H24V13a2.988,2.988,0,0,1,3-3h5.5V7.5A1.454,1.454,0,0,1,34,6h2a1.454,1.454,0,0,1,1.5,1.5V10h2.35a2.99,2.99,0,0,1,1.775.55,2.827,2.827,0,0,1,1.075,1.5l3.15,9.45a1.828,1.828,0,0,1,.125.475A4.305,4.305,0,0,1,46,22.45V36H40a6.01,6.01,0,0,1-10.25,4.25A5.786,5.786,0,0,1,28,36H20a5.975,5.975,0,0,1-6,6Zm0-3a2.87,2.87,0,0,0,2.15-.875,3.023,3.023,0,0,0-4.275-4.275A3.013,3.013,0,0,0,14,39Zm20,0a2.87,2.87,0,0,0,2.15-.875,3.023,3.023,0,0,0-4.275-4.275A3.013,3.013,0,0,0,34,39ZM5,25v8H8.8a6.179,6.179,0,0,1,2.175-2.175,5.958,5.958,0,0,1,6.05,0A6.179,6.179,0,0,1,19.2,33H24V25Zm22,8h1.8a6.179,6.179,0,0,1,2.175-2.175,5.958,5.958,0,0,1,6.05,0A6.179,6.179,0,0,1,39.2,33H43V25H27Zm0-11H42.85l-3-9H27ZM2,20V18H4V12H2V10H22v2H20v6h2v2Zm4-2h5V12H6Zm7,0h5V12H13Zm11,7h0Zm3,0h0Z" transform="translate(-2 -6)" fill="#f5fafd"/>
</svg>
