<svg xmlns="http://www.w3.org/2000/svg" width="40" height="32" viewBox="0 0 40 32">
  <path id="monitor_heart_FILL0_wght400_GRAD0_opsz48" d="M4,19.5V11a2.878,2.878,0,0,1,.9-2.1A2.878,2.878,0,0,1,7,8H41a2.878,2.878,0,0,1,2.1.9A2.878,2.878,0,0,1,44,11v8.5H41V11H7v8.5ZM7,40a2.878,2.878,0,0,1-2.1-.9A2.878,2.878,0,0,1,4,37V28.5H7V37H41V28.5h3V37a3.076,3.076,0,0,1-3,3Zm13-6.5a1.627,1.627,0,0,0,.775-.2,1.337,1.337,0,0,0,.575-.6L28,19.4l2.65,5.3a1.337,1.337,0,0,0,.575.6,1.627,1.627,0,0,0,.775.2H44v-3H32.95l-3.6-7.15a1.2,1.2,0,0,0-.575-.575,1.8,1.8,0,0,0-1.55,0,1.2,1.2,0,0,0-.575.575L20,28.6l-2.65-5.3a1.337,1.337,0,0,0-.575-.6A1.627,1.627,0,0,0,16,22.5H4v3H15.05l3.6,7.2a1.337,1.337,0,0,0,.575.6,1.627,1.627,0,0,0,.775.2ZM24,24Z" transform="translate(-4 -8)" fill="#eaf6fc"/>
</svg>
