<svg xmlns="http://www.w3.org/2000/svg" width="32" height="40" viewBox="0 0 32 40">
  <path id="local_police_FILL0_wght400_GRAD0_opsz48" d="M18.7,30.35l5.3-3.9,5.15,3.9L27,24.05l5.3-3.8H25.9L24,14l-1.9,6.25H15.7l5.2,3.8ZM24,43.95a19.635,19.635,0,0,1-11.5-8.125A23.715,23.715,0,0,1,8,21.85V9.95l16-6,16,6v11.9a23.715,23.715,0,0,1-4.5,13.975A19.635,19.635,0,0,1,24,43.95Zm0-3.1a18.038,18.038,0,0,0,9.375-7.175A20.4,20.4,0,0,0,37,21.85v-9.8L24,7.15l-13,4.9v9.8a20.4,20.4,0,0,0,3.625,11.825A18.038,18.038,0,0,0,24,40.85ZM24,24Z" transform="translate(-8 -3.95)" fill="#eef7fc"/>
</svg>
