<svg xmlns="http://www.w3.org/2000/svg" width="129" height="90" viewBox="0 0 129 90">
  <g id="Grupo_23" data-name="Grupo 23" transform="translate(-249 -745)">
    <path id="exit_to_app_FILL0_wght400_GRAD0_opsz48" d="M9,42a2.878,2.878,0,0,1-2.1-.9A2.878,2.878,0,0,1,6,39V28.5H9V39H39V8.9H9V19.5H6V8.9a2.878,2.878,0,0,1,.9-2.1A2.878,2.878,0,0,1,9,5.9H39a2.878,2.878,0,0,1,2.1.9A2.878,2.878,0,0,1,42,8.9V39a3.076,3.076,0,0,1-3,3Zm11.65-8.35L18.4,31.4l5.9-5.9H6v-3H24.3l-5.9-5.9,2.25-2.25L30.3,24Z" transform="translate(311 768.1)" fill="#38b4d3"/>
    <text id="salir" transform="translate(264 800)" fill="#32bcd7" font-size="20" font-family="Quicksand-Bold, Quicksand" font-weight="700"><tspan x="0" y="0">salir</tspan></text>
    <rect id="Rectángulo_95" data-name="Rectángulo 95" width="129" height="90" rx="14" transform="translate(249 745)" fill="none"/>
  </g>
</svg>
