<?xml version="1.0" encoding="utf-8"?>
<!-- Generator: Adobe Illustrator 27.4.0, SVG Export Plug-In . SVG Version: 6.00 Build 0)  -->
<svg version="1.1" id="Capa_1" xmlns="http://www.w3.org/2000/svg" xmlns:xlink="http://www.w3.org/1999/xlink" x="0px" y="0px"
	 viewBox="0 0 595.28 841.89" style="enable-background:new 0 0 595.28 841.89;" xml:space="preserve">
<style type="text/css">
	.st0{fill:#FFFFFF;}
</style>
<path class="st0" d="M157.42,583.93c-8.02-2.24-16.56-3.39-23.97-6.9c-29.1-13.81-44.16-37.44-43.92-69.55
	c0.6-79.38,53.98-146.95,130.84-166.67c94.15-24.16,191.15,35.69,211.82,130.68c3.07,14.11,4.56,28.34,3.83,42.78
	c-1.67,32.92-27.59,62.31-60.04,68.11c-2.6,0.46-5.18,1.03-7.77,1.55c-5.59,0-11.18,0-16.77,0c-2.32-0.39-4.67-0.66-6.96-1.21
	c-14.31-3.41-28.76-6.33-42.86-10.46c-24.18-7.08-48.24-8.35-72.59-1.26c-10.06,2.93-20.13,5.83-30.32,8.27
	c-8.08,1.93-16.34,3.13-24.53,4.65C168.6,583.93,163.01,583.93,157.42,583.93z M271.54,359.6c-28.9,0.1-48.66,3.59-67.15,11.99
	c-48.98,22.24-79.1,59.78-88.78,112.89c-1.91,10.48-2.97,21.66-1.51,32.11c3.86,27.66,27.54,45.25,55.47,43.19
	c12.82-0.94,25.2-3.73,37.45-7.4c14.9-4.46,29.88-8.65,45.48-9.91c19.79-1.6,38.94,1.85,57.79,7.5c16.05,4.81,32.12,9.4,49.06,9.99
	c28.09,0.97,51.85-20.53,52.76-48.6c0.76-23.53-4.07-46.09-14.8-67.05C369.33,389.59,323.79,362.38,271.54,359.6z"/>
<path class="st0" d="M58.42,279.73c0.82-4,1.44-8.06,2.5-12c3.82-14.2,11.3-25.81,24.67-32.74c15.68-8.13,34.12-4.16,46.28,9.62
	c18.73,21.23,19.48,57.81,1.63,79.75c-17.83,21.92-47.51,20.83-63.88-2.32c-6.05-8.55-9.37-18.1-10.54-28.45
	c-0.1-0.91-0.43-1.79-0.66-2.68C58.42,287.18,58.42,283.45,58.42,279.73z M122.46,285.39c-0.02-9.62-2.96-18.48-8.13-24.46
	c-6.82-7.89-16.23-8.16-23.19-0.66c-11.52,12.41-11.59,37.61-0.13,50.17c6.95,7.62,16.41,7.57,23.14-0.26
	C120.24,303.07,122.38,294.56,122.46,285.39z"/>
<path class="st0" d="M368.91,238.5c-0.3,15.93-4.14,31.1-14.34,44.05c-20.14,25.58-52.38,25.47-72.5-0.08
	c-18.81-23.88-18.7-64.59,0.24-88.37c21.99-27.61,58.42-24.54,76.53,6.4C365.68,212.16,368.61,224.82,368.91,238.5z M292,236.97
	c0.1,10.87,2.19,19.79,7.12,27.97c10.09,16.76,28.44,16.79,38.56,0.07c4.66-7.7,6.95-16.1,7.11-24.98
	c0.23-12.13-2.59-23.41-10.7-32.92c-8.26-9.67-19.21-10.82-28.71-2.47C295.29,213.53,292.46,225.55,292,236.97z"/>
<path class="st0" d="M257.65,240.1c-0.42,17.81-5.82,35.48-20.51,49.28c-17.61,16.55-43,16.24-60.41-0.5
	c-25.57-24.59-26.75-72.66-2.42-98.49c21.05-22.34,52.75-19.72,70.59,5.84C253.73,208.87,257.48,223.04,257.65,240.1z
	 M233.62,239.33c-0.07-10.26-2-19.27-7.1-27.35c-9.4-14.88-24.83-18.33-36.87-2.49c-6.08,8.01-8.56,17.36-8.8,27.21
	c-0.3,12.13,2.51,23.44,10.63,32.94c9.17,10.73,22.43,10.68,31.6-0.12C230.67,260.58,233.38,249.96,233.62,239.33z"/>
<path class="st0" d="M379.22,285.04c0.29-14.23,3.95-27.81,13.65-39.35c16.45-19.57,43.16-19.86,60.08-0.62
	c19.14,21.76,18.83,60.11-0.64,81.51c-18.99,20.87-48.88,17.16-64.22-7.95C381.89,308.48,379.44,297.32,379.22,285.04z
	 M403.18,284.06c-0.06,10.67,2.7,19.27,7.74,25.42c7.2,8.79,17.16,8.84,24.41,0.12c10.53-12.67,10.52-35.44-0.01-48.32
	c-7.01-8.57-17.06-8.66-24.18-0.1C405.33,268.14,403.32,276.42,403.18,284.06z"/>
<path class="st0" d="M250.86,438.06c0-9.06-0.14-17.67,0.04-26.28c0.18-8.67,8.21-14.25,16.05-11.38c4.65,1.7,7.73,6.04,7.81,11.44
	c0.11,7.31,0.03,14.63,0.04,21.95c0,1.29,0,2.59,0,4.28c7.84,0,15.25-0.03,22.66,0.02c1.99,0.01,4,0.05,5.95,0.38
	c6.04,1.04,9.97,6.03,9.75,12.19c-0.21,5.97-4.73,10.93-10.85,11.18c-7.44,0.31-14.89,0.14-22.34,0.18c-1.57,0.01-3.13,0-5.19,0
	c0,8.98,0.09,17.58-0.03,26.18c-0.1,7.31-5.5,12.54-12.37,12.28c-6.58-0.25-11.43-5.32-11.52-12.34c-0.11-8.5-0.03-17.01-0.03-26.12
	c-2.69,0-5.17,0.01-7.64,0c-6.65-0.03-13.31,0.14-19.95-0.18c-6.1-0.29-10.61-5.26-10.79-11.24c-0.19-6.16,3.73-11.39,9.82-12.08
	c5.26-0.59,10.61-0.37,15.93-0.44C242.3,438.01,246.38,438.06,250.86,438.06z"/>
</svg>
