<svg xmlns="http://www.w3.org/2000/svg" width="37.5" height="41" viewBox="0 0 37.5 41">
  <path id="vaccines_FILL0_wght400_GRAD0_opsz48" d="M15.5,45l-3-2.25V33.5h-3a2.878,2.878,0,0,1-2.1-.9,2.878,2.878,0,0,1-.9-2.1v-16H6a1.5,1.5,0,1,1,0-3h6.5V7H11A1.454,1.454,0,0,1,9.5,5.5,1.454,1.454,0,0,1,11,4h6a1.454,1.454,0,0,1,1.5,1.5A1.454,1.454,0,0,1,17,7H15.5v4.5H22a1.5,1.5,0,1,1,0,3h-.5v16a3.076,3.076,0,0,1-3,3h-3Zm-6-14.5h9v-4h-4a1,1,0,0,1,0-2h4v-4h-4a1,1,0,0,1,0-2h4v-4h-9ZM30,44a3.076,3.076,0,0,1-3-3V27.7a5.75,5.75,0,0,1,.4-2.425,6.226,6.226,0,0,1,1.05-1.525A8.579,8.579,0,0,0,29.7,22.2,2.465,2.465,0,0,0,30,21V19.5h-.5A1.454,1.454,0,0,1,28,18a1.415,1.415,0,0,1,.45-1.075A1.481,1.481,0,0,1,29.5,16.5h10a1.5,1.5,0,1,1,0,3H39V21a2.5,2.5,0,0,0,.375,1.25A9.581,9.581,0,0,0,40.7,23.9a5.159,5.159,0,0,1,.975,1.45A6.3,6.3,0,0,1,42,27.7V41a3.076,3.076,0,0,1-3,3Zm0-15h9V27.7a2.684,2.684,0,0,0-.5-1.6q-.5-.7-1.1-1.45a7.418,7.418,0,0,1-1.075-1.75A5.036,5.036,0,0,1,36,21V19.5H33V21a5.252,5.252,0,0,1-.3,1.85,6.733,6.733,0,0,1-1.05,1.75q-.6.75-1.125,1.475A2.7,2.7,0,0,0,30,27.7Zm0,6h9V31H30Zm0,6h9V37H30Zm0-6h0Z" transform="translate(-4.5 -4)" fill="#275289"/>
</svg>
