<svg xmlns="http://www.w3.org/2000/svg" width="40" height="40" viewBox="0 0 40 40">
  <path id="medical_information_FILL0_wght400_GRAD0_opsz48" d="M14.5,36h3V31.5H22v-3H17.5V24h-3v4.5H10v3h4.5ZM26,28.5H38v-2H26Zm0,6h8v-2H26ZM7,44a2.878,2.878,0,0,1-2.1-.9A2.878,2.878,0,0,1,4,41V17a2.878,2.878,0,0,1,.9-2.1A2.878,2.878,0,0,1,7,14H18.85V7a2.878,2.878,0,0,1,.9-2.1,2.878,2.878,0,0,1,2.1-.9H26.2a2.878,2.878,0,0,1,2.1.9A2.878,2.878,0,0,1,29.2,7v7H41a3.076,3.076,0,0,1,3,3V41a3.076,3.076,0,0,1-3,3Zm0-3H41V17H29.2a2.756,2.756,0,0,1-.925,2.2,3.427,3.427,0,0,1-2.325.8h-3.9a3.356,3.356,0,0,1-2.275-.8A2.756,2.756,0,0,1,18.85,17H7ZM21.85,17H26.2V7H21.85ZM24,29Z" transform="translate(-4 -4)" fill="#275289"/>
</svg>
