<svg xmlns="http://www.w3.org/2000/svg" width="32" height="40" viewBox="0 0 32 40">
  <path id="personal_injury_FILL0_wght400_GRAD0_opsz48" d="M24,19a7.193,7.193,0,0,1-7.5-7.5A7.193,7.193,0,0,1,24,4a7.193,7.193,0,0,1,7.5,7.5A7.193,7.193,0,0,1,24,19Zm0-3a4.361,4.361,0,0,0,4.5-4.5A4.361,4.361,0,0,0,24,7a4.361,4.361,0,0,0-4.5,4.5A4.361,4.361,0,0,0,24,16ZM8,44V30.8a5.5,5.5,0,0,1,.95-3.25A6.1,6.1,0,0,1,11.4,25.5a43.652,43.652,0,0,1,5.725-2.075A24.487,24.487,0,0,1,24,22.5a24.225,24.225,0,0,1,6.85.925,44.135,44.135,0,0,1,5.7,2.075,6.028,6.028,0,0,1,2.5,2.05A5.5,5.5,0,0,1,40,30.8V41a3.076,3.076,0,0,1-3,3H19.5a5,5,0,1,1,0-10h5.9L29,26q-1.3-.25-2.575-.375T24,25.5a22.935,22.935,0,0,0-6.425.825A31.477,31.477,0,0,0,12.6,28.2a2.892,2.892,0,0,0-1.15,1.05A2.807,2.807,0,0,0,11,30.8V44Zm11.5-3h2.7l1.85-4H19.5a2,2,0,0,0,0,4Zm6,0H37V30.8a2.7,2.7,0,0,0-.475-1.55A3.072,3.072,0,0,0,35.35,28.2q-.6-.3-1.45-.65t-1.95-.75ZM24,11.5ZM24,33.65Z" transform="translate(-8 -4)" fill="#275289"/>
</svg>
