<svg xmlns="http://www.w3.org/2000/svg" width="40" height="40" viewBox="0 0 40 40">
  <path id="face_5_FILL0_wght400_GRAD0_opsz48" d="M24,11.25a1.025,1.025,0,1,1,.7-.3A.959.959,0,0,1,24,11.25Zm4,0a1.025,1.025,0,1,1,.7-.3A.959.959,0,0,1,28,11.25Zm-8,0a1.025,1.025,0,1,1,.7-.3A.959.959,0,0,1,20,11.25Zm14,2a1.025,1.025,0,1,1,.7-.3A.959.959,0,0,1,34,13.25Zm-16,0a1.025,1.025,0,1,1,.7-.3A.959.959,0,0,1,18,13.25Zm-4,0a1.025,1.025,0,1,1,.7-.3A.959.959,0,0,1,14,13.25Zm8,0a1.025,1.025,0,1,1,.7-.3A.959.959,0,0,1,22,13.25Zm4,0a1.025,1.025,0,1,1,.7-.3A.959.959,0,0,1,26,13.25Zm4,0a1.025,1.025,0,1,1,.7-.3A.959.959,0,0,1,30,13.25Zm-6,2a1.025,1.025,0,1,1,.7-.3A.959.959,0,0,1,24,15.25Zm4,0a1.025,1.025,0,1,1,.7-.3A.959.959,0,0,1,28,15.25Zm4,0a1.025,1.025,0,1,1,.7-.3A.959.959,0,0,1,32,15.25Zm-12,0a1.025,1.025,0,1,1,.7-.3A.959.959,0,0,1,20,15.25Zm-4,0a1.025,1.025,0,1,1,.7-.3A.959.959,0,0,1,16,15.25Zm2,2a1.025,1.025,0,1,1,.7-.3A.959.959,0,0,1,18,17.25Zm-4,0a1.025,1.025,0,1,1,.7-.3A.959.959,0,0,1,14,17.25Zm8,0a1.025,1.025,0,1,1,.7-.3A.959.959,0,0,1,22,17.25Zm4,0a1.025,1.025,0,1,1,.7-.3A.959.959,0,0,1,26,17.25Zm4,0a1.025,1.025,0,1,1,.7-.3A.959.959,0,0,1,30,17.25Zm4,0a1.025,1.025,0,1,1,.7-.3A.959.959,0,0,1,34,17.25Zm-24,0a1.025,1.025,0,1,1,.7-.3A.959.959,0,0,1,10,17.25Zm2-2a1.025,1.025,0,1,1,.7-.3A.959.959,0,0,1,12,15.25Zm4-4a1.025,1.025,0,1,1,.7-.3A.959.959,0,0,1,16,11.25Zm2-2a1.025,1.025,0,1,1,.7-.3A.959.959,0,0,1,18,9.25Zm4,0a1.025,1.025,0,1,1,.7-.3A.959.959,0,0,1,22,9.25Zm4,0a1.025,1.025,0,1,1,.7-.3A.959.959,0,0,1,26,9.25Zm4,0a1.025,1.025,0,1,1,.7-.3A.959.959,0,0,1,30,9.25Zm2,2a1.025,1.025,0,1,1,.7-.3A.959.959,0,0,1,32,11.25Zm4,4a1.025,1.025,0,1,1,.7-.3A.959.959,0,0,1,36,15.25Zm2,2a1.025,1.025,0,1,1,.7-.3A.959.959,0,0,1,38,17.25ZM17.7,28.85a2.648,2.648,0,1,1,1.925-.775,2.614,2.614,0,0,1-1.925.775Zm12.65,0a2.648,2.648,0,1,1,1.925-.775,2.614,2.614,0,0,1-1.925.775ZM24,44a19.352,19.352,0,0,1-7.75-1.575A20.15,20.15,0,0,1,5.575,31.75a19.978,19.978,0,0,1,0-15.55,19.988,19.988,0,0,1,4.3-6.35A20.5,20.5,0,0,1,16.25,5.575a19.978,19.978,0,0,1,15.55,0A19.969,19.969,0,0,1,42.425,16.2a19.978,19.978,0,0,1,0,15.55,20.5,20.5,0,0,1-4.275,6.375,19.988,19.988,0,0,1-6.35,4.3A19.475,19.475,0,0,1,24,44Zm0-3a16.359,16.359,0,0,0,12.05-4.975A16.424,16.424,0,0,0,41,24a16.4,16.4,0,0,0-4.95-12.05A16.4,16.4,0,0,0,24,7a16.424,16.424,0,0,0-12.025,4.95A16.359,16.359,0,0,0,7,24a16.383,16.383,0,0,0,4.975,12.025A16.382,16.382,0,0,0,24,41Z" transform="translate(-4 -4)" fill="#275289"/>
</svg>
