<?xml version="1.0" standalone="no"?>
<!DOCTYPE svg PUBLIC "-//W3C//DTD SVG 20010904//EN"
 "http://www.w3.org/TR/2001/REC-SVG-20010904/DTD/svg10.dtd">
<svg version="1.0" xmlns="http://www.w3.org/2000/svg"
 width="512.000000pt" height="512.000000pt" viewBox="0 0 512.000000 512.000000"
 preserveAspectRatio="xMidYMid meet">

<g transform="translate(0.000000,512.000000) scale(0.100000,-0.100000)"
fill="#000000" stroke="none">
<path d="M572 5094 c-39 -19 -59 -38 -80 -72 -25 -44 -27 -56 -30 -188 -5
-178 4 -214 69 -277 l49 -47 0 -83 c1 -153 73 -237 205 -237 25 0 45 -4 45 -9
0 -18 -85 -103 -146 -147 -35 -25 -84 -68 -108 -95 -54 -60 -120 -187 -135
-261 -8 -38 -11 -549 -9 -1748 l3 -1695 27 -50 c32 -62 103 -129 166 -158 47
-22 49 -22 807 -22 l760 0 57 28 c73 36 150 119 175 189 17 51 18 130 18 1738
l0 1685 -28 79 c-50 141 -107 217 -237 316 -68 52 -140 126 -140 144 0 3 20 6
45 6 82 0 149 40 186 112 14 28 19 58 19 123 l0 85 49 47 c62 61 71 92 71 264
0 126 -2 139 -26 188 -17 34 -41 62 -67 79 l-41 27 -825 3 -826 2 -53 -26z
m1670 -141 c16 -14 18 -33 18 -140 0 -110 -2 -125 -20 -143 -20 -20 -33 -20
-805 -20 -772 0 -785 0 -805 20 -18 18 -20 33 -20 138 0 90 4 123 16 140 l15
22 791 0 c722 0 793 -1 810 -17z m-102 -517 c0 -45 -5 -69 -16 -80 -14 -14
-90 -16 -689 -16 -599 0 -675 2 -689 16 -11 11 -16 35 -16 80 l0 64 705 0 705
0 0 -64z m-247 -300 c38 -72 114 -156 205 -224 85 -64 148 -147 175 -231 13
-39 17 -88 17 -187 l0 -134 -855 0 -855 0 0 129 c0 210 48 315 189 420 90 67
169 153 206 224 l30 57 430 0 430 0 28 -54z m405 -2108 l2 -1178 -189 0 c-206
0 -234 -6 -249 -50 -11 -32 7 -84 33 -94 9 -3 102 -6 206 -6 l189 0 0 -204 c0
-121 -4 -216 -11 -233 -15 -40 -48 -73 -94 -94 -38 -17 -81 -19 -750 -19 -669
0 -712 2 -750 19 -46 21 -79 54 -94 94 -7 17 -11 110 -11 226 l0 198 347 6
c190 4 403 7 473 7 113 0 128 2 148 20 32 30 30 82 -4 109 -26 21 -36 21 -495
21 l-469 0 0 505 0 505 188 0 c202 0 245 7 292 47 62 52 60 25 60 686 0 332 3
607 7 610 3 4 268 6 587 5 l581 -3 3 -1177z m-1330 585 l-3 -588 -192 -3 -193
-2 0 590 0 590 195 0 195 0 -2 -587z"/>
<path d="M1469 2911 c-34 -35 -36 -59 -8 -95 l20 -26 309 0 309 0 20 26 c28
36 26 60 -8 95 l-29 29 -292 0 -292 0 -29 -29z"/>
<path d="M1805 2655 c-14 -13 -25 -36 -25 -50 0 -14 11 -37 25 -50 23 -24 29
-25 153 -25 153 0 176 10 176 75 0 65 -23 75 -176 75 -124 0 -130 -1 -153 -25z"/>
<path d="M1705 1634 c-87 -45 -98 -75 -103 -269 -5 -194 5 -248 54 -299 44
-45 92 -59 186 -55 61 4 82 9 117 32 71 47 81 81 81 287 0 149 -3 181 -19 215
-21 46 -54 79 -94 94 -44 17 -187 14 -222 -5z m179 -150 c3 -9 6 -80 6 -159 0
-164 -2 -168 -77 -163 l-48 3 -3 155 c-1 85 0 160 2 167 8 20 112 18 120 -3z"/>
<path d="M863 1625 c-11 -8 -24 -26 -27 -40 -7 -29 15 -79 39 -89 9 -3 133 -6
275 -6 237 0 260 2 281 19 32 26 32 86 0 112 -21 18 -44 19 -285 19 -214 0
-265 -3 -283 -15z"/>
<path d="M858 1380 c-24 -25 -29 -36 -23 -58 16 -63 11 -62 311 -62 l273 0 20
26 c24 30 26 43 10 77 -20 43 -45 47 -310 47 l-251 0 -30 -30z"/>
<path d="M857 1153 c-8 -10 -19 -30 -22 -45 -6 -22 -1 -33 24 -58 l31 -31 146
3 c139 3 147 4 165 27 26 32 24 73 -4 99 -22 21 -33 22 -174 22 -130 0 -152
-2 -166 -17z"/>
<path d="M2845 5108 c-52 -19 -82 -47 -109 -100 -24 -48 -26 -62 -26 -187 0
-172 9 -203 71 -264 l49 -47 0 -83 c1 -153 73 -237 205 -237 25 0 45 -3 45 -6
0 -19 -81 -102 -141 -145 -122 -89 -187 -176 -236 -315 l-27 -79 -1 -393 0
-394 28 -24 c44 -37 88 -29 115 23 8 14 12 79 12 182 l0 161 195 0 195 0 -2
-587 -3 -588 -192 -3 -192 -2 -3 264 c-3 243 -5 266 -22 285 -25 27 -79 28
-105 2 -11 -11 -23 -35 -26 -53 -3 -18 -5 -532 -3 -1143 3 -1083 3 -1111 23
-1159 28 -68 104 -149 173 -183 l57 -28 760 0 c758 0 760 0 807 22 69 31 137
99 169 168 l29 60 0 1690 c0 1874 5 1741 -67 1877 -45 87 -96 144 -193 218
-72 55 -140 124 -140 142 0 5 20 8 45 8 132 0 204 84 205 237 l0 83 49 47 c65
63 74 99 69 277 -3 127 -5 145 -27 183 -27 46 -60 74 -110 91 -46 16 -1631 16
-1676 0z m1649 -160 c12 -17 16 -50 16 -140 0 -105 -2 -120 -20 -138 -20 -20
-33 -20 -809 -20 l-790 0 -15 22 c-24 33 -23 254 1 280 15 17 54 18 809 18
l793 0 15 -22z m-104 -512 c0 -98 5 -96 -231 -96 -199 0 -200 0 -224 -25 -14
-13 -25 -36 -25 -50 0 -14 11 -37 25 -50 21 -22 33 -25 102 -25 l78 0 30 -57
c37 -71 116 -157 206 -224 141 -105 189 -210 189 -420 l0 -129 -855 0 -855 0
0 133 c0 89 5 150 15 183 23 77 86 168 152 216 91 68 196 177 228 240 l30 58
194 0 c186 0 196 1 218 22 33 30 31 80 -3 107 -26 20 -38 21 -340 21 -363 0
-344 -5 -344 96 l0 64 705 0 705 0 0 -64z m150 -2406 l0 -1180 -860 0 -860 0
0 505 0 505 193 0 c208 0 250 7 298 47 60 51 59 36 59 691 0 329 3 602 7 605
3 4 267 7 585 7 l578 0 0 -1180z m-2 -1548 l-3 -219 -29 -37 c-60 -79 -23 -76
-819 -76 -765 0 -747 -1 -805 53 -49 45 -52 62 -52 287 l0 210 856 0 855 0 -3
-218z"/>
<path d="M3734 2928 c-22 -10 -44 -47 -44 -72 0 -7 9 -25 21 -40 l20 -26 308
0 c338 0 330 -1 346 62 6 22 1 33 -23 58 l-30 30 -289 -1 c-176 0 -296 -4
-309 -11z"/>
<path d="M4055 2655 c-14 -13 -25 -36 -25 -50 0 -14 11 -37 25 -50 23 -24 30
-25 149 -25 68 0 132 3 141 6 8 4 23 20 31 36 13 25 13 35 3 59 -6 17 -20 34
-30 39 -10 6 -74 10 -144 10 -120 0 -127 -1 -150 -25z"/>
<path d="M3952 1633 c-44 -21 -79 -65 -93 -115 -6 -25 -9 -108 -7 -213 3 -167
4 -173 30 -212 38 -58 95 -83 188 -83 93 0 150 25 188 83 26 39 27 45 30 216
2 110 0 190 -7 213 -15 48 -57 97 -98 114 -46 20 -189 18 -231 -3z m182 -155
c3 -13 6 -82 6 -154 0 -158 -4 -167 -75 -162 l-50 3 -3 168 -2 167 59 0 c52 0
59 -2 65 -22z"/>
<path d="M3103 1614 c-20 -20 -24 -31 -19 -57 13 -65 19 -67 306 -67 142 0
266 3 275 6 24 10 46 60 39 89 -13 53 -26 55 -312 55 l-263 0 -26 -26z"/>
<path d="M3124 1398 c-22 -10 -44 -47 -44 -72 0 -7 9 -25 21 -40 l20 -26 273
0 c300 0 295 -1 311 62 6 22 1 33 -23 58 l-30 30 -254 -1 c-152 0 -261 -4
-274 -11z"/>
<path d="M3101 1144 c-12 -15 -21 -33 -21 -40 0 -26 23 -62 47 -73 37 -17 268
-14 302 4 46 23 54 66 20 109 l-20 26 -154 0 -154 0 -20 -26z"/>
</g>
</svg>
