<svg xmlns="http://www.w3.org/2000/svg" width="24" height="21.333" viewBox="0 0 24 21.333">
  <path id="Icon_awesome-clinic-medical" data-name="Icon awesome-clinic-medical" d="M12,4.791,2.894,12.821a1.928,1.928,0,0,1-.228.14v7.706a.667.667,0,0,0,.667.667H20.666a.667.667,0,0,0,.667-.667v-7.7a1.944,1.944,0,0,1-.219-.133Zm4,10.875a.333.333,0,0,1-.333.333H13.333v2.333a.333.333,0,0,1-.333.333H11a.333.333,0,0,1-.333-.333V16H8.333A.333.333,0,0,1,8,15.666v-2a.333.333,0,0,1,.333-.333h2.333V11A.333.333,0,0,1,11,10.666h2a.333.333,0,0,1,.333.333v2.333h2.333a.333.333,0,0,1,.333.333Zm7.779-5.822L13.114.428a1.66,1.66,0,0,0-2.227,0L.221,9.845a.667.667,0,0,0-.05.942l.892.992a.667.667,0,0,0,.942.05L11.559,3.4a.667.667,0,0,1,.882,0L22,11.829a.667.667,0,0,0,.942-.05l.892-.992a.667.667,0,0,0-.051-.941Z" transform="translate(0.001 0.001)" fill="#275289"/>
</svg>
