<svg id="Grupo_74" data-name="Grupo 74" xmlns="http://www.w3.org/2000/svg" width="24" height="22.41" viewBox="0 0 24 22.41">
  <path id="pets_FILL0_wght400_GRAD0_opsz48" d="M82.7,231.321a2.62,2.62,0,0,1-1.916-.771,2.663,2.663,0,0,1,0-3.77,2.777,2.777,0,0,1,3.836,0,2.663,2.663,0,0,1,0,3.77A2.642,2.642,0,0,1,82.7,231.321Zm5.55-5.013a2.62,2.62,0,0,1-1.916-.771,2.663,2.663,0,0,1,0-3.77,2.777,2.777,0,0,1,3.836,0,2.663,2.663,0,0,1,0,3.77A2.642,2.642,0,0,1,88.246,226.308Zm7.5,0a2.62,2.62,0,0,1-1.916-.771,2.663,2.663,0,0,1,0-3.77,2.777,2.777,0,0,1,3.836,0,2.663,2.663,0,0,1,0,3.77A2.642,2.642,0,0,1,95.746,226.308Zm5.55,5.013a2.62,2.62,0,0,1-1.916-.771,2.663,2.663,0,0,1,0-3.77,2.777,2.777,0,0,1,3.836,0,2.663,2.663,0,0,1,0,3.77A2.642,2.642,0,0,1,101.3,231.321ZM85.58,243.41a2.623,2.623,0,0,1-2.07-.93,3.235,3.235,0,0,1-.81-2.2,3.423,3.423,0,0,1,.765-2.2,23.823,23.823,0,0,1,1.635-1.843,14.613,14.613,0,0,0,1.23-1.371q.57-.722,1.08-1.489a17.606,17.606,0,0,1,1.95-2.418A3.526,3.526,0,0,1,92,229.846a3.574,3.574,0,0,1,2.655,1.121,16.2,16.2,0,0,1,1.965,2.447q.51.767,1.065,1.474a14.119,14.119,0,0,0,1.215,1.356,23.821,23.821,0,0,1,1.635,1.843,3.423,3.423,0,0,1,.765,2.2,3.235,3.235,0,0,1-.81,2.2,2.623,2.623,0,0,1-2.07.93,19.463,19.463,0,0,1-3.21-.265,19.548,19.548,0,0,0-6.42,0A19.462,19.462,0,0,1,85.58,243.41Z" transform="translate(-80 -221)" fill="#275289"/>
</svg>
