<svg id="Grupo_86" data-name="Grupo 86" xmlns="http://www.w3.org/2000/svg" xmlns:xlink="http://www.w3.org/1999/xlink" width="24" height="26.228" viewBox="0 0 24 26.228">
  <defs>
    <clipPath id="clip-path">
      <rect id="Rectángulo_108" data-name="Rectángulo 108" width="24" height="26.228" fill="none"/>
    </clipPath>
  </defs>
  <g id="Grupo_85" data-name="Grupo 85" transform="translate(0 0)" clip-path="url(#clip-path)">
    <path id="Trazado_33" data-name="Trazado 33" d="M12.16,5.756a.96.96,0,0,1-.96.96h-.318v3.1H6.357a.676.676,0,1,0,0,1.353h4.524V13.25H6.357a.676.676,0,1,0,0,1.353h4.524v2.354a1.974,1.974,0,0,1-1.921,1.921H7.04v7.351L5.12,24.794V18.876H3.2A1.846,1.846,0,0,1,1.86,18.3a1.821,1.821,0,0,1-.575-1.346V6.717H.96A.96.96,0,0,1,.96,4.8H5.12V1.922h-.96a.934.934,0,0,1-.96-.9V.961A.935.935,0,0,1,4.1,0H8a.934.934,0,0,1,.96.9V.961a.934.934,0,0,1-.9.96H7.04V4.8H11.2a.964.964,0,0,1,.96.96" transform="translate(0 0)" fill="#275289"/>
    <path id="Trazado_34" data-name="Trazado 34" d="M30.676,17.49a3.29,3.29,0,0,0-.624-.928,6.12,6.12,0,0,1-.847-1.056,1.6,1.6,0,0,1-.24-.8v-.96h.321a.96.96,0,0,0,0-1.919h-6.4a.944.944,0,0,0-.672.271.9.9,0,0,0-.288.688c0,.02,0,.04,0,.06a.93.93,0,0,0,.96.9h.319v.96a1.584,1.584,0,0,1-.192.768,5.5,5.5,0,0,1-.8.991,3.98,3.98,0,0,0-.672.976,3.674,3.674,0,0,0-.256,1.551V27.5a1.968,1.968,0,0,0,1.919,1.92h5.757A1.968,1.968,0,0,0,30.884,27.5V18.993a4.038,4.038,0,0,0-.208-1.5M23.207,21.1h5.758v2.558H23.207Z" transform="translate(-6.889 -3.828)" fill="#275289"/>
  </g>
</svg>
