<svg xmlns="http://www.w3.org/2000/svg" xmlns:xlink="http://www.w3.org/1999/xlink" width="26.483" height="26.487" viewBox="0 0 26.483 26.487">
  <defs>
    <clipPath id="clip-path">
      <rect width="26.483" height="26.487" fill="none"/>
    </clipPath>
  </defs>
  <g id="Cuadrícula_de_repetición_1" data-name="Cuadrícula de repetición 1" clip-path="url(#clip-path)">
    <g transform="translate(-321.552 -721.256)">
      <path id="Icon_awesome-search" data-name="Icon awesome-search" d="M26.123,22.9l-5.157-5.157a1.241,1.241,0,0,0-.879-.362h-.843a10.754,10.754,0,1,0-1.862,1.862v.843a1.241,1.241,0,0,0,.362.879L22.9,26.123a1.236,1.236,0,0,0,1.754,0l1.464-1.464A1.247,1.247,0,0,0,26.123,22.9ZM10.759,17.381a6.621,6.621,0,1,1,6.621-6.621A6.617,6.617,0,0,1,10.759,17.381Z" transform="translate(321.552 721.256)" fill="#95b8c8"/>
    </g>
  </g>
</svg>
