<svg id="Grupo_123" data-name="Grupo 123" xmlns="http://www.w3.org/2000/svg" xmlns:xlink="http://www.w3.org/1999/xlink" width="36" height="36" viewBox="0 0 36 36">
  <defs>
    <clipPath id="clip-path">
      <rect id="Rectángulo_164" data-name="Rectángulo 164" width="36" height="36" fill="#fff"/>
    </clipPath>
  </defs>
  <g id="Grupo_123-2" data-name="Grupo 123" clip-path="url(#clip-path)">
    <path id="Trazado_68" data-name="Trazado 68" d="M3,33H33V14.25L21.75,3H3Zm0,3a2.892,2.892,0,0,1-2.119-.881A2.892,2.892,0,0,1,0,33V3A2.892,2.892,0,0,1,.881.881,2.892,2.892,0,0,1,3,0H23L36,13V33a3.008,3.008,0,0,1-3,3Zm0-3v0Z" fill="#fff"/>
    <path id="Trazado_69" data-name="Trazado 69" d="M8.955,34.83V21.406h1.937V32.894H21.218V25.7l3.292-3.292a6.762,6.762,0,0,0,2-4.808,6.525,6.525,0,0,0-.532-2.6,6.885,6.885,0,0,0-1.468-2.178l-1.033-1.065L19.25,15.984H13.441l-1.71,1.711-1.388-1.356,2.291-2.291h5.809l5.034-5.034,2.42,2.42a8.407,8.407,0,0,1,1.872,2.824,9.316,9.316,0,0,1,.678,3.34,9.316,9.316,0,0,1-.678,3.34A8.393,8.393,0,0,1,25.9,23.761L23.154,26.5V34.83Zm6.035-6.938L8.5,21.406a2.14,2.14,0,0,1-.484-.726,2.275,2.275,0,0,1-.162-.856,2.4,2.4,0,0,1,.162-.871,2.109,2.109,0,0,1,.484-.742l2.485-2.517,3.775,3.743A6.163,6.163,0,0,1,16.1,21.422a5.975,5.975,0,0,1,.468,2.339,6.277,6.277,0,0,1-.4,2.211,5.784,5.784,0,0,1-1.178,1.92" fill="#fff"/>
  </g>
</svg>
