<svg xmlns="http://www.w3.org/2000/svg" width="38" height="36.1" viewBox="0 0 38 36.1">
  <path id="pets_FILL0_wght400_GRAD0_opsz24" d="M84.75-817.9a4.587,4.587,0,0,1-3.372-1.377A4.587,4.587,0,0,1,80-822.65a4.587,4.587,0,0,1,1.378-3.372A4.587,4.587,0,0,1,84.75-827.4a4.587,4.587,0,0,1,3.372,1.378A4.587,4.587,0,0,1,89.5-822.65a4.587,4.587,0,0,1-1.378,3.373A4.587,4.587,0,0,1,84.75-817.9Zm8.55-7.6a4.587,4.587,0,0,1-3.372-1.378,4.587,4.587,0,0,1-1.378-3.372,4.587,4.587,0,0,1,1.378-3.372A4.587,4.587,0,0,1,93.3-835a4.587,4.587,0,0,1,3.372,1.378,4.587,4.587,0,0,1,1.378,3.372,4.587,4.587,0,0,1-1.378,3.372A4.587,4.587,0,0,1,93.3-825.5Zm11.4,0a4.587,4.587,0,0,1-3.372-1.378,4.587,4.587,0,0,1-1.378-3.372,4.587,4.587,0,0,1,1.378-3.372A4.587,4.587,0,0,1,104.7-835a4.587,4.587,0,0,1,3.373,1.378,4.587,4.587,0,0,1,1.377,3.372,4.587,4.587,0,0,1-1.377,3.372A4.587,4.587,0,0,1,104.7-825.5Zm8.55,7.6a4.587,4.587,0,0,1-3.372-1.377,4.587,4.587,0,0,1-1.378-3.373,4.587,4.587,0,0,1,1.378-3.372,4.587,4.587,0,0,1,3.372-1.378,4.587,4.587,0,0,1,3.373,1.378A4.587,4.587,0,0,1,118-822.65a4.587,4.587,0,0,1-1.377,3.373A4.587,4.587,0,0,1,113.25-817.9Zm-24.415,19a4.6,4.6,0,0,1-3.586-1.639A5.654,5.654,0,0,1,83.8-804.41a6.219,6.219,0,0,1,1.686-4.322q1.686-1.852,3.349-3.658A17.332,17.332,0,0,0,91.21-815.6a18.793,18.793,0,0,1,2.375-3.254,9.346,9.346,0,0,1,2.423-2.043A5.814,5.814,0,0,1,99-821.7a6.094,6.094,0,0,1,2.993.76,8.59,8.59,0,0,1,2.423,1.995,20.945,20.945,0,0,1,2.351,3.277,19.335,19.335,0,0,0,2.4,3.278q1.662,1.8,3.349,3.658a6.22,6.22,0,0,1,1.686,4.322,5.654,5.654,0,0,1-1.449,3.871,4.6,4.6,0,0,1-3.586,1.639,30.308,30.308,0,0,1-5.083-.427A30.308,30.308,0,0,0,99-799.755a30.308,30.308,0,0,0-5.083.428A30.308,30.308,0,0,1,88.835-798.9Z" transform="translate(-80 835)" fill="#fff"/>
</svg>
